<svg xmlns:rdf="http://www.w3.org/1999/02/22-rdf-syntax-ns#" xmlns="http://www.w3.org/2000/svg" height="15" width="15" version="1.1" xmlns:cc="http://creativecommons.org/ns#" xmlns:dc="http://purl.org/dc/elements/1.1/" viewBox="0 0 15 15">
<g><path fill="#ffffff" d="m15.06356,8.7711868a6.0381355,6.0381355,0,1,1,-12.0762715,0,6.0381355,6.0381355,0,1,1,12.0762715,0z" transform="matrix(1.0764912,0,0,1.0764912,-2.2157898,-1.9421052)"/>
<path fill="#00688b" d="M7.5,0c-4.142,0-7.5,3.358-7.5,7.5s3.358,7.5,7.5,7.5,7.5-3.358,7.5-7.5-3.358-7.5-7.5-7.5zm2.813,3.75c0.518,0,0.938,0.42,0.938,0.938s-0.42,0.938-0.938,0.938-0.938-0.42-0.938-0.938,0.42-0.938,0.938-0.938zm-5.625,0c0.518,0,0.938,0.42,0.938,0.938s-0.42,0.938-0.938,0.938-0.938-0.42-0.938-0.938,0.42-0.938,0.938-0.938zm5.626,7.687c-0.574-0.954-1.619-1.593-2.814-1.593s-2.24,0.639-2.814,1.593l-1.206-0.724c0.82-1.363,2.313-2.276,4.02-2.276s3.2,0.912,4.02,2.276l-1.206,0.724z"/>
</g></svg>