<svg xmlns:rdf="http://www.w3.org/1999/02/22-rdf-syntax-ns#" xmlns="http://www.w3.org/2000/svg" height="15" width="15" version="1.1" xmlns:cc="http://creativecommons.org/ns#" xmlns:dc="http://purl.org/dc/elements/1.1/" viewBox="0 0 15 15">
<g><path fill="#ffffff" d="m15.06356,8.7711868a6.0381355,6.0381355,0,1,1,-12.0762715,0,6.0381355,6.0381355,0,1,1,12.0762715,0z" transform="matrix(1.0764912,0,0,1.0764912,-2.2157898,-1.9421054)"/>
<path fill="#00688b" d="M7.5,0c-4.142,0-7.5,3.358-7.5,7.5s3.358,7.5,7.5,7.5,7.5-3.358,7.5-7.5-3.358-7.5-7.5-7.5zm2.813,3.75c0.518,0,0.938,0.63,0.938,1.406s-0.42,1.406-0.938,1.406-0.938-0.63-0.938-1.406,0.42-1.406,0.938-1.406zm-5.157,0.821c0.874,0,1.494,0.327,1.494,0.839,0,0.108,0.056,0.63-0.002,0.726-0.217-0.36-0.803-0.618-1.492-0.618s-1.274,0.258-1.492,0.618c-0.058-0.097-0.002-0.618-0.002-0.726,0-0.512,0.62-0.839,1.494-0.839zm2.173,7.617c-1.747,0-3.279-0.942-4.144-2.358,1.031,0.807,2.85,0.964,4.765,0.586,2.054-0.406,3.649-1.341,4.225-2.587-0.317,2.46-2.366,4.359-4.846,4.359z"/>
</g></svg>