<svg xmlns:rdf="http://www.w3.org/1999/02/22-rdf-syntax-ns#" xmlns="http://www.w3.org/2000/svg" height="15" width="15" version="1.1" xmlns:cc="http://creativecommons.org/ns#" xmlns:dc="http://purl.org/dc/elements/1.1/" viewBox="0 0 15 15">
<g><path fill="#ffffff" d="m15.06356,8.7711868a6.0381355,6.0381355,0,1,1,-12.0762715,0,6.0381355,6.0381355,0,1,1,12.0762715,0z" transform="matrix(1.0764912,0,0,1.0764912,-2.2157898,-1.9421057)"/>
<path fill="#00688b" d="M7.5,0c-4.142,0-7.5,3.358-7.5,7.5s3.358,7.5,7.5,7.5,7.5-3.358,7.5-7.5-3.358-7.5-7.5-7.5zm2.813,3.457c0.937,0,1.699,0.762,1.699,1.699,0,0.093-0.008,0.189-0.024,0.283-0.024,0.141-0.146,0.244-0.289,0.244s-0.265-0.103-0.289-0.244c-0.09-0.537-0.552-0.781-1.098-0.781s-1.007,0.244-1.098,0.781c-0.024,0.141-0.146,0.244-0.289,0.244s-0.265-0.103-0.289-0.244c-0.016-0.094-0.024-0.189-0.024-0.283,0-0.937,0.762-1.699,1.699-1.699zm-5.625,0c0.937,0,1.699,0.762,1.699,1.699,0,0.093-0.008,0.189-0.024,0.283-0.024,0.141-0.146,0.244-0.289,0.244s-0.265-0.103-0.289-0.244c-0.09-0.537-0.552-0.781-1.098-0.781s-1.007,0.244-1.098,0.781c-0.024,0.141-0.146,0.244-0.289,0.244s-0.265-0.103-0.289-0.244c-0.016-0.094-0.024-0.189-0.024-0.283,0-0.937,0.762-1.699,1.699-1.699zm-1.875,4.981h2.813v3.631c-1.613-0.419-2.813-1.891-2.813-3.631zm3.75,3.75v-3.75h1.875v3.75h-1.875zm2.812-0.12v-3.631h2.813c0,1.739-1.2,3.212-2.813,3.631z"/>
</g></svg>