<svg xmlns:rdf="http://www.w3.org/1999/02/22-rdf-syntax-ns#" xmlns="http://www.w3.org/2000/svg" height="15" width="15" version="1.1" xmlns:cc="http://creativecommons.org/ns#" xmlns:dc="http://purl.org/dc/elements/1.1/" viewBox="0 0 15 15">
<g><path fill="#ffffff" d="m15.06356,8.7711868a6.0381355,6.0381355,0,1,1,-12.0762715,0,6.0381355,6.0381355,0,1,1,12.0762715,0z" transform="matrix(1.0764912,0,0,1.0764912,-2.2157895,-1.9421052)"/>
<path fill="#00688b" d="M7.5,0c-4.142,0-7.5,3.358-7.5,7.5s3.358,7.5,7.5,7.5,7.5-3.358,7.5-7.5-3.358-7.5-7.5-7.5zm-2.812,3.75c0.518,0,0.938,0.42,0.938,0.938s-0.42,0.938-0.938,0.938-0.938-0.42-0.938-0.938,0.42-0.938,0.938-0.938zm6.562,5.625h-0.938v1.406c0,0.777-0.63,1.406-1.406,1.406s-1.406-0.63-1.406-1.406v-1.406h-3.75v-0.938h7.5v0.938zm-0.937-3.75c-0.518,0-0.938-0.42-0.938-0.938s0.42-0.938,0.938-0.938,0.938,0.42,0.938,0.938-0.42,0.938-0.938,0.938z"/>
</g></svg>