<svg xmlns:rdf="http://www.w3.org/1999/02/22-rdf-syntax-ns#" xmlns="http://www.w3.org/2000/svg" height="15" width="15" version="1.1" xmlns:cc="http://creativecommons.org/ns#" xmlns:dc="http://purl.org/dc/elements/1.1/" viewBox="0 0 15 15">
<g><path fill="#ffffff" d="m15.06356,8.7711868a6.0381355,6.0381355,0,1,1,-12.0762715,0,6.0381355,6.0381355,0,1,1,12.0762715,0z" transform="matrix(1.0764912,0,0,1.0764912,-2.2157898,-1.9421052)"/>
<path fill="#00688b" d="M7.5,0c-4.142,0-7.5,3.358-7.5,7.5s3.358,7.5,7.5,7.5,7.5-3.358,7.5-7.5-3.358-7.5-7.5-7.5zm0.939,5.574c0.03-0.695,0.662-1.156,1.195-1.423,0.509-0.254,1.012-0.382,1.033-0.387,0.251-0.063,0.506,0.09,0.568,0.341,0.063,0.251-0.09,0.506-0.341,0.568-0.258,0.065-0.564,0.178-0.834,0.313,0.156,0.167,0.252,0.392,0.252,0.639,0,0.518-0.42,0.938-0.938,0.938s-0.938-0.42-0.938-0.938c0-0.017,0.001-0.034,0.001-0.051zm-4.675-1.469c0.063-0.251,0.317-0.404,0.568-0.341,0.021,0.005,0.525,0.133,1.033,0.387,0.533,0.266,1.165,0.728,1.195,1.423,0.001,0.017,0.001,0.034,0.001,0.051,0,0.518-0.42,0.938-0.938,0.938s-0.938-0.42-0.938-0.938c0-0.247,0.096-0.471,0.252-0.639-0.27-0.135-0.576-0.248-0.834-0.313-0.251-0.063-0.404-0.317-0.341-0.568zm6.55,7.332c-0.574-0.954-1.619-1.593-2.814-1.593s-2.24,0.639-2.814,1.593l-1.206-0.724c0.82-1.363,2.313-2.276,4.02-2.276s3.2,0.912,4.02,2.276l-1.206,0.724z"/>
</g></svg>