<svg xmlns:rdf="http://www.w3.org/1999/02/22-rdf-syntax-ns#" xmlns="http://www.w3.org/2000/svg" height="15" width="15" version="1.1" xmlns:cc="http://creativecommons.org/ns#" xmlns:dc="http://purl.org/dc/elements/1.1/" viewBox="0 0 15 15">
<g><path fill="#ffffff" d="m15.06356,8.7711868a6.0381355,6.0381355,0,1,1,-12.0762715,0,6.0381355,6.0381355,0,1,1,12.0762715,0z" transform="matrix(1.0764912,0,0,1.0764912,-2.2157898,-1.9421052)"/>
<path fill="#00688b" d="M7.5,0c-4.142,0-7.5,3.358-7.5,7.5s3.358,7.5,7.5,7.5,7.5-3.358,7.5-7.5-3.358-7.5-7.5-7.5zm0,12.188c-0.71,0-1.383-0.158-1.985-0.441l0.486-0.81c0.459,0.201,0.966,0.313,1.5,0.313,1.365,0,2.56-0.73,3.216-1.82l0.804,0.482c-0.82,1.363-2.313,2.276-4.02,2.276zm4.688-6.563c0,0.516-0.422,0.938-0.938,0.938h-1.875c-0.516,0-0.938-0.422-0.938-0.938h-1.875c0,0.516-0.422,0.938-0.938,0.938h-1.875c-0.516,0-0.938-0.422-0.938-0.938v-1.406c0-0.258,0.211-0.469,0.469-0.469h2.813c0.258,0,0.469,0.211,0.469,0.469v0.469h1.875v-0.469c0-0.258,0.211-0.469,0.469-0.469h2.813c0.258,0,0.469,0.211,0.469,0.469v1.406z"/>
</g></svg>