<svg xmlns:rdf="http://www.w3.org/1999/02/22-rdf-syntax-ns#" xmlns="http://www.w3.org/2000/svg" height="15" width="15" version="1.1" xmlns:cc="http://creativecommons.org/ns#" xmlns:dc="http://purl.org/dc/elements/1.1/" viewBox="0 0 15 15">
<g><path fill="#ffffff" d="m15.06356,8.7711868a6.0381355,6.0381355,0,1,1,-12.0762715,0,6.0381355,6.0381355,0,1,1,12.0762715,0z" transform="matrix(1.0764912,0,0,1.0764912,-2.2157898,-1.9421052)"/>
<g><path fill="#ffffff" d="m15.06356,8.7711868a6.0381358,6.0381358,0,1,1,-12.0762715,0,6.0381358,6.0381358,0,1,1,12.0762715,0z" transform="matrix(1.0764912,0,0,1.0764912,-2.2157898,-1.9421052)"/>
<g><path fill="#00688b" d="M7.5,0c-4.142,0-7.5,3.3579999-7.5,7.4999998,0,4.1420002,3.358,7.5000002,7.5,7.5000002s7.5-3.358,7.5-7.5000002c0-4.1419999-3.358-7.4999998-7.5-7.4999998zm2.813,3.7499999c0.518,0,0.938,0.42,0.938,0.9379999,0,0.518-0.42,0.938-0.938,0.938s-0.938-0.42-0.938-0.938c0-0.5179999,0.42-0.9379999,0.938-0.9379999zm-5.625,0c0.518,0,0.938,0.42,0.938,0.9379999,0,0.518-0.42,0.938-0.938,0.938s-0.938-0.42-0.938-0.938c0-0.5179999,0.42-0.9379999,0.938-0.9379999zm2.812,8.4380001c-1.707,0-3.2-0.912-4.02-2.2759999l1.206-0.7240004c0.574,0.9540003,1.619,1.5930003,2.814,1.5930003s2.2400003-0.639,2.814-1.5930003l1.206,0.7240004c-0.82,1.3629999-2.313,2.2759999-4.02,2.2759999z"/>
</g></g></g></svg>