<svg xmlns:rdf="http://www.w3.org/1999/02/22-rdf-syntax-ns#" xmlns="http://www.w3.org/2000/svg" height="15" width="15" version="1.1" xmlns:cc="http://creativecommons.org/ns#" xmlns:dc="http://purl.org/dc/elements/1.1/" viewBox="0 0 15 15">
<g><path fill="#ffffff" d="m15.06356,8.7711868a6.0381355,6.0381355,0,1,1,-12.0762715,0,6.0381355,6.0381355,0,1,1,12.0762715,0z" transform="matrix(1.0764912,0,0,1.0764912,-2.2157898,-1.9421052)"/>
<path fill="#00688b" d="M7.5,0c-4.142,0-7.5,3.358-7.5,7.5s3.358,7.5,7.5,7.5,7.5-3.358,7.5-7.5-3.358-7.5-7.5-7.5zm-2.812,6.563c-0.518,0-0.938-0.63-0.938-1.406s0.42-1.406,0.938-1.406,0.938,0.63,0.938,1.406-0.42,1.406-0.938,1.406zm2.812,5.625c-1.036,0-1.875-0.839-1.875-1.875s0.839-1.875,1.875-1.875,1.875,0.839,1.875,1.875-0.839,1.875-1.875,1.875zm2.813-5.625c-0.518,0-0.938-0.63-0.938-1.406s0.42-1.406,0.938-1.406,0.938,0.63,0.938,1.406-0.42,1.406-0.938,1.406z"/>
</g></svg>