<svg xmlns:rdf="http://www.w3.org/1999/02/22-rdf-syntax-ns#" xmlns="http://www.w3.org/2000/svg" height="15" width="15" version="1.1" xmlns:cc="http://creativecommons.org/ns#" xmlns:dc="http://purl.org/dc/elements/1.1/" viewBox="0 0 15 15">
<g><path fill="#ffffff" d="m15.06356,8.7711868a6.0381355,6.0381355,0,1,1,-12.0762715,0,6.0381355,6.0381355,0,1,1,12.0762715,0z" transform="matrix(1.0764912,0,0,1.0764912,-2.2793491,-1.5607493)"/>
<path fill="#00688b" d="M15,1.7646505c0-0.627745-0.14-1.22443215-0.39-1.7646505-0.492,1.0597315-1.413,1.9011168-2.556,2.3321621-1.263-0.9091479-2.841-1.45030741-4.554-1.45030741s-3.291,0.54021831-4.554,1.45030741c-1.143-0.4310453-2.064-1.2733718-2.556-2.3321621-0.251,0.54021835-0.39,1.1369055-0.39,1.7646505,0,1.0145564,0.364,1.9481742,0.975,2.6935626-0.621,1.0277324-0.975,2.216401-0.975,3.4831848,0,3.8982311,3.358,7.0586021,7.5,7.0586021s7.5-3.160371,7.5-7.0586021c0-1.2667838-0.355-2.4554524-0.975-3.4831848,0.611-0.7453884,0.975-1.6790062,0.975-2.6935626zm-6.561,4.3631573c0.03-0.6540972,0.662-1.0879659,1.195-1.3392521,0.509-0.2390514,1.012-0.3595182,1.033-0.3642239,0.251-0.059292,0.506,0.084703,0.568,0.3209311,0.063,0.2362279-0.09,0.4762203-0.341,0.5345715-0.258,0.061174-0.564,0.1675241-0.834,0.294579,0.156,0.1571715,0.252,0.3689296,0.252,0.6013928,0,0.4875142-0.42,0.8827959-0.938,0.8827959s-0.938-0.3952817-0.938-0.8827959c0-0.015999,0.001-0.031999,0.001-0.047998zm-4.675-1.3825449c0.063-0.2362279,0.317-0.3802234,0.568-0.3209311,0.021,0.00471,0.525,0.1251725,1.033,0.3642239,0.533,0.250345,1.165,0.6851549,1.195,1.3392521,0.001,0.016,0.001,0.031999,0.001,0.047998,0,0.4875142-0.42,0.8827959-0.938,0.8827959s-0.938-0.3952817-0.938-0.8827959c0-0.2324628,0.096-0.4432798,0.252-0.6013924-0.27-0.1270549-0.576-0.2334045-0.834-0.294579-0.251-0.0592923-0.404-0.2983436-0.341-0.5345715zm3.736,7.6072911c-1.707,0-3.2-0.858326-4.02-2.142051l1.206-0.6813902c0.574,0.8978542,1.619,1.4992472,2.814,1.4992472s2.24-0.601393,2.814-1.4992472l1.206,0.6813902c-0.82,1.282783-2.313,2.142051-4.02,2.142051z"/>
</g></svg>