<svg xmlns:rdf="http://www.w3.org/1999/02/22-rdf-syntax-ns#" xmlns="http://www.w3.org/2000/svg" height="15" width="15" version="1.1" xmlns:cc="http://creativecommons.org/ns#" xmlns:dc="http://purl.org/dc/elements/1.1/" viewBox="0 0 15 15">
<g><path fill="#ffffff" d="m8.0720339,7.8495765a4.7351694,4.7351694,0,1,1,-9.4703388,0,4.7351694,4.7351694,0,1,1,9.4703388,0z" transform="matrix(1.372707,0,0,1.372707,3.0635309,-3.2921173)"/>
<path fill="#008000" d="M7.5,0c-4.142,0-7.5,3.358-7.5,7.5s3.358,7.5,7.5,7.5,7.5-3.358,7.5-7.5-3.358-7.5-7.5-7.5zm2.813,3.75c0.518,0,0.938,0.42,0.938,0.938s-0.42,0.938-0.938,0.938-0.938-0.42-0.938-0.938,0.42-0.938,0.938-0.938zm-5.625,0c0.518,0,0.938,0.42,0.938,0.938s-0.42,0.938-0.938,0.938-0.938-0.42-0.938-0.938,0.42-0.938,0.938-0.938zm2.812,8.438c-1.707,0-3.2-0.912-4.02-2.276l1.206-0.724c0.574,0.954,1.619,1.593,2.814,1.593s2.24-0.639,2.814-1.593l1.206,0.724c-0.82,1.363-2.313,2.276-4.02,2.276z"/>
</g></svg>