<!-- Created with Inkscape (http://www.inkscape.org/) -->
<svg xmlns:rdf="http://www.w3.org/1999/02/22-rdf-syntax-ns#" xmlns="http://www.w3.org/2000/svg" height="15" width="15" version="1.1" xmlns:cc="http://creativecommons.org/ns#" xmlns:dc="http://purl.org/dc/elements/1.1/" viewBox="0 0 15 15">
<metadata>
<rdf:RDF>
<cc:Work rdf:about="">
<dc:format>image/svg+xml</dc:format>
<dc:type rdf:resource="http://purl.org/dc/dcmitype/StillImage"/>
<dc:title/>
<cc:license rdf:resource=""/>
</cc:Work>
</rdf:RDF>
</metadata>
<g>
<path fill="#ffffff" d="m15.06356,8.7711868a6.0381355,6.0381355,0,1,1,-12.0762715,0,6.0381355,6.0381355,0,1,1,12.0762715,0z" transform="matrix(1.0764912,0,0,1.0764912,-2.2157898,-1.9421052)"/>
<path fill="#00688b" d="M7.5,0c-4.142,0-7.5,3.358-7.5,7.5s3.358,7.5,7.5,7.5,7.5-3.358,7.5-7.5-3.358-7.5-7.5-7.5zm2.813,3.75c0.518,0,0.938,0.42,0.938,0.938s-0.42,0.938-0.938,0.938-0.938-0.42-0.938-0.938,0.42-0.938,0.938-0.938zm-5.625,0c0.518,0,0.938,0.42,0.938,0.938s-0.42,0.938-0.938,0.938-0.938-0.42-0.938-0.938,0.42-0.938,0.938-0.938zm5.376,8.123c-1.214,0.442-2.562-0.186-3.004-1.401-0.265-0.729-1.074-1.106-1.802-0.84-0.667,0.243-1.039,0.942-0.893,1.618h-0.95c-0.135-1.062,0.475-2.117,1.523-2.498,1.214-0.442,2.562,0.186,3.004,1.401,0.265,0.729,1.074,1.106,1.802,0.84,0.667-0.243,1.039-0.942,0.893-1.618h0.95c0.135,1.062-0.475,2.117-1.523,2.498z"/>
</g>
</svg>
